<?xml version="1.0" encoding="utf-8"?>
<!-- Generator: Adobe Illustrator 21.0.2, SVG Export Plug-In . SVG Version: 6.00 Build 0)  -->
<svg version="1.1" xmlns="http://www.w3.org/2000/svg" xmlns:xlink="http://www.w3.org/1999/xlink" x="0px" y="0px"
	 viewBox="0 0 800 800" style="enable-background:new 0 0 800 800;" xml:space="preserve">
<style type="text/css">
	.st0{fill-rule:evenodd;clip-rule:evenodd;fill:#7ED8FD;}
	.st1{fill-rule:evenodd;clip-rule:evenodd;fill:#F7D16E;}
	
		.st2{fill-rule:evenodd;clip-rule:evenodd;fill:none;stroke:#515467;stroke-width:3;stroke-linecap:round;stroke-linejoin:round;stroke-miterlimit:10;}
	.st3{fill:#D6D3CE;stroke:#515467;stroke-width:3;stroke-linecap:round;stroke-linejoin:round;stroke-miterlimit:10;}
	
		.st4{clip-path:url(#SVGID_2_);fill:#D6D3CE;stroke:#515467;stroke-width:3;stroke-linecap:round;stroke-linejoin:round;stroke-miterlimit:10;}
	.st5{fill:#FEFEFE;}
	.st6{fill:#515467;}
	
		.st7{clip-path:url(#XMLID_4_);fill:none;stroke:#515467;stroke-width:3;stroke-linecap:round;stroke-linejoin:round;stroke-miterlimit:10;}
	
		.st8{clip-path:url(#XMLID_4_);fill:#7AD0F3;stroke:#515467;stroke-width:3;stroke-linecap:round;stroke-linejoin:round;stroke-miterlimit:10;}
	
		.st9{clip-path:url(#XMLID_4_);fill:#F7D16E;stroke:#515467;stroke-width:3;stroke-linecap:round;stroke-linejoin:round;stroke-miterlimit:10;}
	.st10{clip-path:url(#XMLID_4_);}
	.st11{fill:none;stroke:#515467;stroke-width:3;stroke-linecap:round;stroke-linejoin:round;stroke-miterlimit:10;}
	.st12{fill:#D3DD6A;stroke:#515467;stroke-width:3;stroke-linecap:round;stroke-linejoin:round;stroke-miterlimit:10;}
	.st13{fill:#FEFEFE;stroke:#515467;stroke-width:3;stroke-linecap:round;stroke-linejoin:round;stroke-miterlimit:10;}
	.st14{fill:none;stroke:#515467;stroke-width:3;stroke-linecap:round;stroke-linejoin:bevel;stroke-miterlimit:10;}
	.st15{fill:#7AD0F3;stroke:#515467;stroke-width:3;stroke-linecap:round;stroke-linejoin:round;stroke-miterlimit:10;}
	
		.st16{fill-rule:evenodd;clip-rule:evenodd;fill:#F7D16E;stroke:#515467;stroke-width:3;stroke-linecap:round;stroke-linejoin:round;stroke-miterlimit:10;}
	
		.st17{fill-rule:evenodd;clip-rule:evenodd;fill:#D6D3CE;stroke:#515467;stroke-width:3;stroke-linecap:round;stroke-linejoin:round;stroke-miterlimit:10;}
	
		.st18{fill-rule:evenodd;clip-rule:evenodd;fill:#7AD0F3;stroke:#515467;stroke-width:3;stroke-linecap:round;stroke-linejoin:round;stroke-miterlimit:10;}
	.st19{fill:none;stroke:#515467;stroke-width:4;stroke-linecap:round;stroke-linejoin:round;}
	.st20{fill:none;stroke:#515467;stroke-width:4;stroke-linecap:round;stroke-linejoin:round;stroke-dasharray:6.0463,9.8699;}
	.st21{fill:none;stroke:#515467;stroke-width:4;stroke-linecap:round;stroke-linejoin:round;stroke-dasharray:5.9327,9.6845;}
	.st22{fill:#F7D16E;stroke:#515467;stroke-width:3.5266;stroke-linecap:round;stroke-linejoin:round;stroke-miterlimit:10;}
	.st23{fill:#7AD0F3;stroke:#515467;stroke-width:3.5266;stroke-linecap:round;stroke-linejoin:round;stroke-miterlimit:10;}
	.st24{fill:#D3DD6A;stroke:#515467;stroke-width:3.5266;stroke-linecap:round;stroke-linejoin:round;stroke-miterlimit:10;}
	.st25{fill:none;stroke:#515467;stroke-width:4;stroke-linecap:round;stroke-linejoin:round;stroke-dasharray:5,9;}
</style>
<g id="Background">
	<g id="Credits">
	</g>
</g>
<g id="Objects">
	<g id="design_1_">
		<rect id="back" x="34" y="353" class="st0" width="733" height="119"/>
		<g id="table">
			<rect x="34" y="590" class="st1" width="733" height="30"/>
			<rect x="31.5" y="560.5" class="st2" width="737" height="29"/>
		</g>
		<g id="monitor_2_">
			<ellipse id="shadow_1_" class="st3" cx="389.5" cy="560.3" rx="165" ry="11.3"/>
			<g id="monitor_1_">
				<g id="monitor">
					<g>
						<defs>
							<path id="SVGID_1_" d="M554,496c0,11-9,20-20,20H244c-11,0-20-9-20-20V332c0-11,9-20,20-20h290c11,0,20,9,20,20V496z"/>
						</defs>
						<clipPath id="SVGID_2_">
							<use xlink:href="#SVGID_1_"  style="overflow:visible;"/>
						</clipPath>
						<rect x="204.5" y="490.5" class="st4" width="358" height="42"/>
					</g>
					<g id="XMLID_14_">
						<path class="st5" d="M244.5,517c-11.9,0-21.5-9.6-21.5-21.5v-164c0-11.9,9.6-21.5,21.5-21.5h290c11.9,0,21.5,9.6,21.5,21.5
							v164c0,11.9-9.6,21.5-21.5,21.5H244.5z"/>
						<path class="st6" d="M534.5,312c11,0,19.5,8.5,19.5,19.5v164c0,11-8.5,20.5-19.5,20.5h-290c-11,0-20.5-9.5-20.5-20.5v-164
							c0-11,9.5-19.5,20.5-19.5H534 M534.5,309h-290c-12.7,0-23.5,9.8-23.5,22.5v164c0,12.7,10.8,23.5,23.5,23.5h290
							c12.7,0,22.5-10.8,22.5-23.5v-164C557,318.8,547.2,309,534.5,309L534.5,309z"/>
					</g>
					<g id="ui">
						<defs>
							<rect id="XMLID_15_" x="241.5" y="326.5" width="292" height="145"/>
						</defs>
						<clipPath id="XMLID_4_">
							<use xlink:href="#XMLID_15_"  style="overflow:visible;"/>
						</clipPath>
						<rect x="234.5" y="311.5" class="st7" width="305" height="41"/>
						<rect x="321.5" y="318.5" class="st8" width="130" height="34"/>
						<rect x="255.5" y="374.5" class="st9" width="58" height="79"/>
						<g id="text" class="st10">
							<line class="st11" x1="326" y1="386.5" x2="396" y2="386.5"/>
							<line class="st11" x1="326" y1="398.5" x2="396" y2="398.5"/>
							<line class="st11" x1="326" y1="409.5" x2="396" y2="409.5"/>
							<line class="st11" x1="326" y1="421.5" x2="396" y2="421.5"/>
						</g>
						<g id="text_1_" class="st10">
							<line class="st11" x1="405" y1="441.5" x2="514" y2="441.5"/>
							<line class="st11" x1="405" y1="453.5" x2="514" y2="453.5"/>
						</g>
						
							<use xlink:href="#XMLID_15_"  style="overflow:visible;fill:none;stroke:#515467;stroke-width:3;stroke-linecap:round;stroke-linejoin:round;stroke-miterlimit:10;"/>
					</g>
					<line class="st11" x1="369" y1="503.5" x2="406" y2="503.5"/>
				</g>
				
					<rect x="425.5" y="354.5" transform="matrix(0.9563 -0.2923 0.2923 0.9563 -89.7201 162.5209)" class="st12" width="147" height="54"/>
				<g id="stand">
					<rect x="346.5" y="517.5" class="st11" width="86" height="25"/>
					<path class="st13" d="M461.5,548.2c0,3.5-3.2,7.3-8.5,7.3H325c-5.3,0-10.5-3.7-10.5-7.3v-0.3c0-3.5,5.2-5.4,10.5-5.4h128
						c5.3,0,8.5,1.9,8.5,5.4V548.2z"/>
				</g>
			</g>
		</g>
		<g id="hook">
			<polyline class="st14" points="561.5,334 564,220.3 579.4,209.5 658.3,351.3 			"/>
			<circle class="st15" cx="577.3" cy="220.3" r="13.3"/>
			<g>
				<g id="pull">
					<line class="st14" x1="670.5" y1="345" x2="670.5" y2="498"/>
					<g id="weight">
						<rect x="662.5" y="465.5" class="st15" width="15" height="56"/>
						<rect x="662.5" y="480.5" class="st12" width="15" height="24"/>
					</g>
				</g>
				<rect x="641.5" y="378.5" class="st2" width="14" height="182"/>
				<path class="st16" d="M632.2,334.2c1.4,0,2.5,0.8,3.5,1.9c1.2,1.3,2.7,1.9,4.4,1.3c1.7-0.7,1.9-2.2,1.9-3.8
					c0.2-4.1,1.4-5.2,5.5-5.2c6.3-0.1,6.4,0,7.6,6.4c0.5,2.9,3,3.8,5.5,1.9c4.5-3.4,9.8-1.7,11.6,3.8c0.6,1.9-0.2,3.4-1.5,4.7
					c-1.1,1.2-2.4,2.4-1.7,4.2c0.8,1.9,2.4,2.2,4.3,2.3c3.4,0.1,4.6,1.3,4.7,4.7c0,1.1,0,2.2,0,3.4c-0.1,3.2-1.3,4.4-4.5,4.6
					c-1.8,0.1-3.6,0.2-4.4,2c-0.9,2,0.4,3.2,1.6,4.5c2.3,2.6,2.3,4.4-0.1,7c-0.7,0.8-1.4,1.5-2.2,2.2c-2.5,2.3-4.5,2.4-7,0.1
					c-1.4-1.2-2.7-2.3-4.6-1.5c-1.9,0.8-2,2.6-2.1,4.4c-0.3,3.6-1.4,4.6-5,4.7c-0.9,0-1.8,0-2.8,0c-3.4-0.1-4.7-1.3-4.9-4.8
					c-0.1-1.7,0-3.4-1.9-4.2c-1.9-0.8-3.3,0.1-4.7,1.4c-3,2.7-4.8,2.4-8.3-1.2c-3.3-3.4-3.5-5-0.7-8c1.2-1.3,2-2.6,1.3-4.4
					c-0.7-1.8-2.3-2-4.1-2.1c-3.8-0.1-4.9-1.4-5-5c0-0.7,0-1.4,0-2.1c0-4.2,1-5.3,5.2-5.4c1.6-0.1,3.1-0.4,3.8-2
					c0.7-1.6,0.2-2.9-1-4.2c-3-3.5-3-5.1,0.4-8.2C628.6,335.9,629.8,334.3,632.2,334.2z M636.7,357.9c0,6.6,5.3,12,11.8,11.9
					c6.4-0.1,11.9-5.6,11.9-12c0-6.4-5.6-11.9-12-11.9C641.9,345.9,636.7,351.3,636.7,357.9z"/>
				<rect x="618.5" y="556.5" class="st17" width="86" height="13"/>
			</g>
		</g>
		<path id="arrow_1_" class="st18" d="M275,429.7c0.6,1.8,0,3.5-0.3,5.2c-0.7,4.7-1.5,9.4-2.3,14.1c-0.9,5.7-1.9,11.3-2.8,17
			c-1,6.4-2.1,12.9-3.1,19.3c-1,6.2-2.1,12.3-3.1,18.5c-1,5.8-1.9,11.7-2.8,17.5c-0.4,2.2-1.5,3.6-3.5,3.8c-1.5,0.1-2.7-0.4-3.4-1.7
			c-1.5-2.6-3-5.2-4.5-7.9c-1.7-2.9-3.4-5.7-5-8.6c-0.8-1.5-1.7-3-2.6-4.5c-0.3-0.6-0.6-0.5-0.9,0c-1.3,2.2-2.6,4.4-3.8,6.6
			c-1.5,2.5-2.9,5.1-4.4,7.6c-2.4,4.1-4.8,8.2-7.1,12.4c-1.9,3.4-5.1,5.1-8.8,4.5c-4.8-0.8-7.7-6.4-5.6-10.8c1.1-2.4,2.6-4.7,3.9-7
			c2-3.6,4.1-7.1,6.1-10.6c1.9-3.3,3.8-6.6,5.8-9.9c0.2-0.3,0.4-0.7,0.6-1c0.1-0.2,0.4-0.5,0.2-0.7c-0.2-0.2-0.5-0.1-0.7-0.1
			c-6.4,0.5-12.9,0.9-19.3,1.4c-1.9,0.1-3.7,0.3-5.6,0.4c-1.9,0.1-3.3-0.7-4-2.3c-0.6-1.4-0.1-3.1,1.3-4.3
			c23.2-20,46.4-39.9,69.7-59.8c1.4-1.2,2.9-1.3,4.6-0.5C274.1,428.6,274.5,429.1,275,429.7z"/>
		<g id="bulb_and_cloud">
			<g id="light_bulb_1_">
				<g>
					<g>
						<line class="st19" x1="222" y1="458" x2="219" y2="458"/>
						<path class="st20" d="M209,458h-32c-11,0-20-9-20-20V331"/>
						<line class="st19" x1="157" y1="326" x2="157" y2="323"/>
					</g>
				</g>
				<g>
					<g>
						<line class="st19" x1="339" y1="244" x2="336" y2="244"/>
						<line class="st21" x1="325.8" y1="244.2" x2="205.7" y2="244.2"/>
						<line class="st19" x1="201" y1="244" x2="198" y2="244"/>
					</g>
				</g>
				<g id="light_bulb">
					<path class="st22" d="M156.8,181.8c20.3,0,36.8,16.5,36.8,36.8c0,13.1-6.9,25-18.4,31.7l-4.6,2.7v5.3v15.6H143v-15.6V253
						l-4.6-2.7c-11.6-6.7-18.4-18.6-18.4-31.7C120,198.3,136.5,181.8,156.8,181.8 M156.8,172.6c-25.4,0-46,20.6-46,46
						c0,17,9.3,31.7,23,39.7v15.6c0,5.1,4.1,9.2,9.2,9.2h27.6c5.1,0,9.2-4.1,9.2-9.2v-15.6c13.7-8,23-22.7,23-39.7
						C202.8,193.2,182.2,172.6,156.8,172.6L156.8,172.6z"/>
					<path class="st23" d="M175.2,294.1c0,2.5-2.1,4.6-4.5,4.6h-27.6c-2.7,0-4.7-2.1-4.7-4.6c0-2.5,2.1-4.6,4.6-4.6h27.6
						C173.1,289.4,175.2,291.5,175.2,294.1z"/>
					<path class="st24" d="M170.6,304.9H143c-2.5,0-4.6,2.1-4.6,4.6c0,2.5,2.1,4.6,4.6,4.6c0,5.1,4.1,9.2,9.2,9.2h9.2
						c5.1,0,9.2-4.1,9.2-9.2c2.5,0,4.6-2.1,4.6-4.6C175.2,306.9,173.1,304.9,170.6,304.9z"/>
				</g>
			</g>
			<g id="cloud">
				<g>
					<g>
						<line class="st19" x1="390" y1="309" x2="390" y2="306"/>
						<line class="st25" x1="390" y1="297" x2="390" y2="288"/>
						<line class="st19" x1="390" y1="283" x2="390" y2="280"/>
					</g>
				</g>
				<path class="st18" d="M335.7,252.5c0.5-2.9,1.4-5.7,2.9-8.3c2.8-4.7,6.7-8,11.9-9.8c0.8-0.3,1.1-0.7,1.1-1.5
					c-0.1-10.7,8.2-20.7,19.9-22c2.2-0.2,4.4-0.2,6.5,0.3c0.7,0.2,1.2,0,1.6-0.6c7.1-8.2,16.1-11.2,26.4-8.4
					c10.4,2.8,16.5,9.9,18.7,20.4c0.5,2.3,0.3,4.6,0.2,6.9c0,0.5,0,0.8,0.5,1.1c6.9,4.3,10.9,10.5,12.2,18.5c0,0.1,0,0.1,0.1,0.2
					c0,2.1,0,4.3,0,6.4c-0.1,0.6-0.2,1.2-0.3,1.8c-2.2,11.7-12.8,20.6-24.7,20.7c-18.4,0-36.8,0.1-55.1,0c-8.3,0-14.5-4-18.9-10.9
					c-1.6-2.6-2.5-5.5-3-8.5C335.7,256.5,335.7,254.5,335.7,252.5z M385.1,271.4c8.6,0,17.2,0,25.7,0c1.6,0,3.3-0.1,4.9-0.4
					c9.8-1.8,17.1-11,15.3-21.8c-1.3-7.4-5.7-12.3-12.8-14.9c-0.9-0.3-1-0.6-0.7-1.5c1.1-3.1,1.3-6.3,0.7-9.5
					c-1.7-9.4-10.4-16.8-21.3-15.3c-6.6,0.9-11.4,4.5-14.4,10.4c-0.5,0.9-0.8,1-1.7,0.5c-7.7-3.8-17-0.7-20.9,7
					c-2.1,4.2-2.3,8.5-0.6,12.8c0.3,0.7,0.2,1-0.7,1c-1-0.1-2-0.1-3,0.1c-8,1.2-13.5,8.3-13.4,15.8c0.2,7.5,5.5,14,12.9,15.3
					c1.7,0.3,3.4,0.4,5.2,0.4C368.6,271.4,376.8,271.4,385.1,271.4z"/>
			</g>
		</g>
		<g id="content">
			<g id="_x30_4_1_">
				<line class="st11" x1="92" y1="314.5" x2="110" y2="314.5"/>
				<line class="st11" x1="79" y1="314.5" x2="83" y2="314.5"/>
				<line class="st11" x1="108" y1="322.5" x2="67" y2="322.5"/>
				<line class="st11" x1="75" y1="332.5" x2="98" y2="332.5"/>
				<line class="st11" x1="110" y1="332.5" x2="119" y2="332.5"/>
			</g>
			<g id="_x30_3_1_">
				<line class="st11" x1="635" y1="257.5" x2="646" y2="257.5"/>
				<line class="st11" x1="646" y1="249.5" x2="663" y2="249.5"/>
				<line class="st11" x1="643" y1="270.5" x2="683" y2="270.5"/>
				<line class="st11" x1="659" y1="257.5" x2="701" y2="257.5"/>
				<line class="st11" x1="675" y1="249.5" x2="695" y2="249.5"/>
				<line class="st11" x1="665" y1="239.5" x2="695" y2="239.5"/>
				<line class="st11" x1="639" y1="239.5" x2="647" y2="239.5"/>
			</g>
			<g id="_x30_2_2_">
				<line class="st11" x1="88" y1="513.5" x2="130" y2="513.5"/>
				<line class="st11" x1="140" y1="513.5" x2="157" y2="513.5"/>
				<line class="st11" x1="171" y1="513.5" x2="178" y2="513.5"/>
				<line class="st11" x1="117" y1="503.5" x2="151" y2="503.5"/>
				<line class="st11" x1="105" y1="503.5" x2="99" y2="503.5"/>
				<line class="st11" x1="117" y1="524.5" x2="168" y2="524.5"/>
				<line class="st11" x1="161" y1="503.5" x2="172" y2="503.5"/>
				<line class="st11" x1="93" y1="524.5" x2="105" y2="524.5"/>
			</g>
			<g id="_x30_1_1_">
				<line class="st11" x1="458" y1="276.5" x2="467" y2="276.5"/>
				<line class="st11" x1="478" y1="276.5" x2="483" y2="276.5"/>
				<line class="st11" x1="472" y1="290.5" x2="499" y2="290.5"/>
				<line class="st11" x1="492" y1="276.5" x2="520" y2="276.5"/>
				<line class="st11" x1="462" y1="290.5" x2="453" y2="290.5"/>
				<line class="st11" x1="462" y1="264.5" x2="495" y2="264.5"/>
				<line class="st11" x1="509" y1="290.5" x2="514" y2="290.5"/>
				<line class="st11" x1="503" y1="264.5" x2="510" y2="264.5"/>
			</g>
		</g>
	</g>
</g>
</svg>
