<?xml version="1.0" encoding="utf-8"?>
<!-- Generator: Adobe Illustrator 21.0.2, SVG Export Plug-In . SVG Version: 6.00 Build 0)  -->
<svg version="1.1" id="Coding_2_" xmlns="http://www.w3.org/2000/svg" xmlns:xlink="http://www.w3.org/1999/xlink" x="0px" y="0px"
	 viewBox="0 0 1487.1 1125" style="enable-background:new 0 0 1487.1 1125;" xml:space="preserve">
<style type="text/css">
	.st0{fill:#CF7659;}
	.st1{fill-rule:evenodd;clip-rule:evenodd;fill:#4D565E;}
	.st2{fill-rule:evenodd;clip-rule:evenodd;fill:#343B42;}
	.st3{fill-rule:evenodd;clip-rule:evenodd;fill:#E6E6E6;}
	.st4{fill-rule:evenodd;clip-rule:evenodd;fill:#E5E5E5;}
	.st5{fill-rule:evenodd;clip-rule:evenodd;fill:#3D3D3D;}
	.st6{fill-rule:evenodd;clip-rule:evenodd;fill:#808080;}
	.st7{fill-rule:evenodd;clip-rule:evenodd;fill:#F77B55;}
	.st8{fill-rule:evenodd;clip-rule:evenodd;fill:#E6E5E5;}
	.st9{fill-rule:evenodd;clip-rule:evenodd;fill:#363F48;}
</style>
<g id="Coding_1_">
	<g id="Coding">
		<path id="Compound" class="st0" d="M1084.4,65.6v62.1v3.2v3.5V193v3.2v3.5v58.7v3.2v3.5v58.7v3.2v3.5v62.1v3.2h-4.4h-79.8h-4.4
			H991h-75.4h-4.4h-4.4h-75.4h-4.7h-4.4h-75.4h-4.4H738h-75.7h-4.4h-4.4h-75.4h-4.4h-4.4h-80.1h-4.4v-3.2v-62.1v-3.5v-3.2v-58.7
			v-3.5v-3.2v-58.7v-3.5V193v-58.7v-3.5v-3.2V65.6v-3.2h4.4h80.1h4.4h4.4h75.4h4.4h4.4H738h4.4h4.4h75.4h4.4h4.7h75.4h4.4h4.4H991
			h4.7h4.4h79.8h4.4V65.6z M1075.5,134.4h-75.4V193h75.4V134.4z M991,134.4h-75.4V193H991V134.4z M906.8,134.4h-75.4V193h75.4V134.4
			z M822.3,134.4h-75.4V193h75.4V134.4z M738,134.4h-75.7V193H738V134.4z M653.5,134.4h-75.4V193h75.4V134.4z M569.3,134.4h-75.7
			V193h75.7V134.4z M493.6,127.7h75.7V69.1h-75.7V127.7z M578.1,127.7h75.4V69.1h-75.4V127.7z M662.3,127.7H738V69.1h-75.7V127.7z
			 M746.9,127.7h75.4V69.1h-75.4V127.7z M831.4,127.7h75.4V69.1h-75.4V127.7z M915.6,127.7H991V69.1h-75.4V127.7z M1000.1,127.7
			h75.4V69.1h-75.4V127.7z M1075.5,199.7h-75.4v58.7h75.4V199.7z M991,199.7h-75.4v58.7H991V199.7z M906.8,199.7h-75.4v58.7h75.4
			V199.7z M822.3,199.7h-75.4v58.7h75.4V199.7z M738,199.7h-75.7v58.7H738V199.7z M653.5,199.7h-75.4v58.7h75.4V199.7z M569.3,199.7
			h-75.7v58.7h75.7V199.7z M1075.5,264.9h-75.4v58.7h75.4V264.9z M991,264.9h-75.4v58.7H991V264.9z M906.8,264.9h-75.4v58.7h75.4
			V264.9z M822.3,264.9h-75.4v58.7h75.4V264.9z M738,264.9h-75.7v58.7H738V264.9z M653.5,264.9h-75.4v58.7h75.4V264.9z M569.3,264.9
			h-75.7v58.7h75.7V264.9z M1075.5,330.2h-75.4v58.7h75.4V330.2z M991,330.2h-75.4v58.7H991V330.2z M906.8,330.2h-75.4v58.7h75.4
			V330.2z M822.3,330.2h-75.4v58.7h75.4V330.2z M738,330.2h-75.7v58.7H738V330.2z M653.5,330.2h-75.4v58.7h75.4V330.2z M569.3,330.2
			h-75.7v58.7h75.7V330.2z"/>
		<g id="Laptop">
			<path class="st1" d="M328.3,382.6h827.9c17,0,30.6,13.9,30.6,30.9V979H297.4V413.5C297.4,396.5,311.3,382.6,328.3,382.6
				L328.3,382.6z"/>
			<path class="st2" d="M159.9,1082.5h582.2h582.6c3.2,0,2.5-2.5-1.3-5.4l-125.2-96.2c-3.8-3.2-9.8-5.4-12.9-5.4H742.1H299.3
				c-3.2,0-9.1,2.2-12.9,5.4l-125.2,96.2C157.4,1079.9,156.7,1082.5,159.9,1082.5L159.9,1082.5z"/>
			<path class="st1" d="M164.3,1075.5c385.4,0,770.5,0,1156,0c8.5,0,9.5,7.3,1.9,16.1l-15.8,17.7c-7.9,8.8-21.1,15.8-30,15.8
				c-356.1,0-712.2,0-1068.3,0c-8.8,0-22.1-6.9-30-15.8l-15.8-17.7C154.9,1082.8,155.5,1075.5,164.3,1075.5L164.3,1075.5z"/>
			<polygon class="st3" points="651.6,1028.8 700.5,1028.8 784.1,1028.8 833,1028.8 860.4,1058.8 756.6,1058.8 727.9,1058.8 
				624.2,1058.8 			"/>
			<rect x="325.5" y="421.1" class="st3" width="833.6" height="527.7"/>
		</g>
		<g id="Circle">
			<path class="st4" d="M176.9,958.8c97.5,0,176.9-79.5,176.9-176.9c0-97.5-79.5-176.9-176.9-176.9S0,684.4,0,781.9
				C0,879.3,79.5,958.8,176.9,958.8L176.9,958.8z"/>
			<path class="st5" d="M1210.8,583.8c152,0,276.3-123.9,276.3-276.3c0-152-124.3-276-276.3-276c-152,0-276.3,124-276.3,276
				C934.5,459.9,1058.8,583.8,1210.8,583.8L1210.8,583.8z"/>
		</g>
		<g id="Codes">
			<rect x="383.5" y="521.4" class="st6" width="460.2" height="26.2"/>
			<rect x="651.9" y="572.8" class="st6" width="272.8" height="22.4"/>
			<rect x="399.6" y="620.1" class="st6" width="272.5" height="22.4"/>
			<rect x="399.6" y="719.1" class="st6" width="272.5" height="22.4"/>
			<rect x="399.6" y="758.5" class="st6" width="272.5" height="22.7"/>
			<rect x="695.8" y="758.5" class="st7" width="86.1" height="22.7"/>
			<rect x="811.8" y="758.5" class="st6" width="86.1" height="22.7"/>
			<rect x="703" y="720.4" class="st6" width="194.9" height="22.4"/>
			<rect x="733" y="620.1" class="st6" width="147" height="22.4"/>
			<rect x="418.9" y="572.8" class="st6" width="78.9" height="22.4"/>
			<rect x="531.8" y="572.8" class="st7" width="78.8" height="22.4"/>
			<rect x="893.9" y="521.4" class="st7" width="70.3" height="26.2"/>
			<rect x="399.6" y="814.1" class="st6" width="87.1" height="22.4"/>
			<rect x="515.7" y="814.1" class="st7" width="87" height="22.4"/>
			<rect x="640.9" y="814.1" class="st6" width="141" height="22.4"/>
		</g>
		<g id="Text">
			<path class="st1" d="M66.2,789.1V775l81.7-34.7v15.1l-64.7,26.5l64.7,27.1v15.1L66.2,789.1z M157.4,845l36-127.4h12.3L169.7,845
				H157.4z M296.5,789.1l-81.4,35V809l64.3-27.1l-64.3-26.5v-15.1l81.4,34.7V789.1z"/>
			<g>
				<polygon class="st4" points="1010.2,307.2 1010.2,293.3 1073.3,259.6 1073.3,274.4 1023.2,300.3 1073.3,326.8 1073.3,341.6 				
					"/>
				<path class="st4" d="M1143.3,309.1l10.4,1.6c-1.3,7.3-4.1,12.9-8.8,17c-4.7,4.1-10.7,6-17.7,6c-8.5,0-15.5-2.8-20.8-8.5
					c-5.4-5.7-7.9-13.6-7.9-24.3c0-6.9,1.3-12.9,3.5-18c2.2-5.1,5.7-8.8,10.4-11.7c4.4-2.5,9.5-3.8,15.2-3.8
					c6.6,0,12.3,1.9,16.7,5.4c4.4,3.5,7.3,8.5,8.5,14.8l-10.4,1.6c-0.9-4.4-2.8-7.6-5.4-9.8c-2.5-1.9-5.7-3.2-9.1-3.2
					c-5.4,0-9.8,1.9-13.3,6c-3.5,3.8-5,9.8-5,18.3c0,8.5,1.6,14.8,4.7,18.6c3.5,3.8,7.6,5.7,12.9,5.7c4.1,0,7.9-1.3,10.7-3.8
					C1140.8,318.6,1142.4,314.5,1143.3,309.1L1143.3,309.1z"/>
				<path class="st4" d="M1158.8,300.6c0-11.7,3.5-20.5,10.1-25.9c5.4-4.7,12-7.3,19.9-7.3c8.8,0,15.8,2.8,21.4,8.5
					c5.4,5.7,8.2,13.9,8.2,23.7c0,8.2-1.3,14.8-3.8,19.2c-2.2,4.7-6,8.5-10.4,11c-4.7,2.5-10.1,3.8-15.5,3.8
					c-8.8,0-16.1-2.8-21.8-8.5C1161.6,319.5,1158.8,311.3,1158.8,300.6L1158.8,300.6z M1169.8,300.6c0,8.2,1.9,14.2,5.4,18.3
					c3.8,4.1,8.2,6,13.6,6c5.4,0,9.8-1.9,13.2-6c3.8-4.1,5.4-10.1,5.4-18.6c0-7.9-1.9-13.6-5.4-17.7c-3.5-4.1-7.9-6-13.2-6
					c-5.4,0-9.8,1.9-13.6,6C1171.7,286.4,1169.8,292.7,1169.8,300.6L1169.8,300.6z"/>
				<path class="st4" d="M1272,332.4v-7.9c-3.8,6-9.8,9.1-17.7,9.1c-5,0-9.8-1.3-13.9-4.1c-4.4-2.8-7.6-6.6-10.1-11.7
					c-2.2-5-3.5-10.7-3.5-17.3c0-6.3,1.3-12,3.1-17c2.2-5,5.4-9.1,9.8-12c4.1-2.5,8.8-4.1,13.9-4.1c4.1,0,7.3,0.9,10.4,2.5
					c2.8,1.6,5.4,3.8,7.3,6.3v-31.5h10.7v87.7H1272z M1238,300.9c0,7.9,1.9,14.2,5.4,18c3.5,4.1,7.6,6,12,6c4.7,0,8.8-1.9,12-5.7
					c3.5-3.8,5.1-9.8,5.1-17.7c0-8.5-1.6-14.8-5.1-18.9c-3.2-4.1-7.6-6-12.3-6c-4.7,0-8.8,1.9-12,5.7
					C1239.5,286.1,1238,292.4,1238,300.9L1238,300.9z"/>
				<path class="st4" d="M1342.7,311.9l11,1.3c-1.6,6.6-5.1,11.7-9.8,15.1c-4.7,3.8-10.7,5.4-18,5.4c-9.4,0-16.7-2.8-22.1-8.5
					c-5.4-5.7-8.2-13.6-8.2-24c0-10.7,2.8-18.9,8.2-24.9c5.3-5.7,12.6-8.8,21.4-8.8c8.5,0,15.5,2.8,20.8,8.8
					c5.4,5.7,7.9,13.9,7.9,24.3c0,0.6,0,1.6,0,2.8h-47.3c0.3,6.9,2.2,12.3,6,16.1c3.5,3.8,7.9,5.4,13.2,5.4c3.8,0,7.3-1,10.1-3.2
					C1338.9,319.8,1341.1,316.3,1342.7,311.9L1342.7,311.9z M1307.4,294.6h35.3c-0.3-5.4-1.9-9.5-4.1-12c-3.5-4.1-7.9-6.3-13.3-6.3
					c-5,0-9.1,1.6-12.3,5C1309.6,284.5,1307.7,288.9,1307.4,294.6L1307.4,294.6z"/>
				<polygon class="st4" points="1442.6,307.2 1379.6,341.6 1379.6,326.8 1429.4,300.3 1379.6,274.4 1379.6,259.6 1442.6,293.3 				
					"/>
			</g>
		</g>
		<g id="Gears_1_">
			<path class="st3" d="M333.1,204.1c9.5,5,17.7,12,24.3,20.2l30.3-11l17,47l-30.3,11c0.3,5-0.3,10.4-1.3,15.8
				c-0.9,5.4-2.2,10.4-4.1,15.1l24.6,20.8l-32.2,38.2l-24.6-20.5c-8.8,5.4-18.9,9.2-29.6,10.7l-5.7,31.5l-48.9-8.5l5.4-31.9
				c-9.5-5-17.7-12-24.3-20.2l-30,11l-17.3-47l30.3-11c0-5,0.3-10.4,1.3-15.8c0.9-5.4,2.5-10.4,4.4-15.1l-24.9-20.8l32.2-38.2
				l24.6,20.8c9.2-5.7,19.2-9.5,29.7-11l5.7-31.5l49.2,8.5L333.1,204.1z"/>
			<path class="st8" d="M664.9,100.6c8.2,13.6,13.2,28.4,15.4,43.8l46.4,8.8l-13.6,71.6l-46.4-8.5c-3.8,6.6-8.2,12.9-13.2,18.9
				c-5.1,6-10.7,11.4-16.7,16.1l15.4,44.5l-69.1,24.3l-15.5-44.5c-15.5,0.3-30.9-2.5-45.4-8.5l-30.9,35.6l-55.5-47.6l30.9-35.6
				c-8.2-13.6-13.2-28.4-15.4-43.8l-46.4-8.5l13.6-71.9l46.4,8.5c3.8-6.6,8.2-12.9,13.2-18.9c5.4-6,10.7-11.4,17-16.1l-15.8-44.5
				L548.5,0l15.5,44.5c15.4,0,30.9,2.5,45.7,8.5l30.6-35.6L695.8,65L664.9,100.6z"/>
			<path class="st9" d="M300,248.9c13.6,2.2,22.7,15.1,20.2,28.7c-2.2,13.6-15.1,22.7-28.7,20.2c-13.6-2.2-22.7-15.1-20.5-28.7
				C273.5,255.5,286.4,246.3,300,248.9L300,248.9z M304,224.9c26.8,4.7,44.5,30.3,39.7,57.1c-4.4,26.5-30,44.5-56.8,39.7
				c-26.5-4.7-44.5-30.3-39.7-56.8C252,238.1,277.5,220.2,304,224.9L304,224.9z"/>
			<path class="st9" d="M589.8,132.5c15.1,12.9,17,36.3,3.8,51.4c-13.2,15.5-36.3,17-51.4,3.8c-15.5-12.9-17.3-36-4.1-51.4
				C551.3,121.1,574.4,119.2,589.8,132.5L589.8,132.5z M612.8,105.7c30,25.9,33.4,71.3,7.6,101.2c-25.9,30.3-71.3,33.7-101.3,7.9
				c-30.3-25.9-33.7-71.3-7.9-101.6C537.1,83,582.6,79.8,612.8,105.7L612.8,105.7z"/>
		</g>
	</g>
</g>
</svg>
