<?xml version="1.0" encoding="utf-8"?>
<!-- Generator: Adobe Illustrator 21.0.2, SVG Export Plug-In . SVG Version: 6.00 Build 0)  -->
<svg version="1.1" id="Layer_1" xmlns="http://www.w3.org/2000/svg" xmlns:xlink="http://www.w3.org/1999/xlink" x="0px" y="0px"
	 viewBox="0 0 600 600" style="enable-background:new 0 0 600 600;" xml:space="preserve">
<style type="text/css">
	.st0{fill:#210A03;}
	.st1{fill:#040711;}
	.st2{fill:#633022;}
	.st3{fill:#BF0000;}
	.st4{fill:#EFEFEF;}
	.st5{fill:#4EF9F4;}
	.st6{fill:#A3A8A8;}
	.st7{fill:#8C8C8C;}
	.st8{fill:#DD1212;}
	.st9{fill:#FFFFFF;}
	.st10{fill:#83FFFF;}
	.st11{fill:#828282;}
	.st12{fill:#C60C0C;}
	.st13{fill:#FFF16E;}
	.st14{fill:#FF8B00;}
	.st15{fill:#FFC197;}
	.st16{fill:#121935;}
	.st17{fill:#38150A;}
	.st18{fill:#F9B78A;}
	.st19{fill:#602700;}
	.st20{fill:#E3ECFF;}
	.st21{fill:#0B1023;}
	.st22{fill:#192144;}
	.st23{fill:#03060C;}
	.st24{fill:#FF8E66;}
	.st25{fill:#FF8352;}
	.st26{fill:#EF7348;}
	.st27{fill:#FCA76D;}
	.st28{fill:#EDB188;}
	.st29{fill:#B20909;}
	.st30{fill:#C60909;}
	.st31{fill:#8C1010;}
	.st32{fill:none;}
	.st33{fill:#526575;}
	.st34{fill:#E2E2E2;}
</style>
<g>
	<path class="st0" d="M563.8,359L563.8,359l-59.9,56.3c0,0-14.3-10.1-13.1-19.7c0.1-1.3,0.6-2.5,1.3-3.7l0.1-0.1l25.7-21.6l3.7-3.1
		c0,0,17.1-41.9,35.4-20.2C557,347,563.4,354.7,563.8,359z"/>
	<path class="st1" d="M517.8,370.2l-25.7,21.6l-0.1,0.1c-0.8,1.2-1.2,2.5-1.3,3.7c-3.5-1.6-6.4-4.4-8.1-8.1
		c-0.7-1.5-1.2-3.1-1.4-4.8c-0.3-2.3-0.7-4.5-1-6.6c-7.1-44.2-21.7-71.7-42.1-79.8c-2.9-1.1-5.8-1.9-8.7-2.2
		c-2.7-1.5-5.4-2.7-8.3-3.8c-4.3-1.7-8.6-2.9-12.9-3.6c-0.3-0.1-0.7-0.1-1-0.2c0.3-0.1,0.7-0.2,1-0.3c0.2-3.1-0.5-6.1-2.3-8.6
		L394.9,262c15.9-5.7,37.6-9.6,59.3-1.2C487.4,273.6,508.8,310.5,517.8,370.2z"/>
	<path class="st2" d="M563.8,359c0.1,0.6,0,1.2-0.2,1.6c-1.8,3.4-43.7,43.7-43.7,43.7l-0.2,1.9l-13.8,11.8l-2-2.6L563.8,359z"/>
	<g>
		<g id="XMLID_1_">
			<g>
				<path class="st3" d="M395,449.7c-4.5,16.1-32.4,99.5-134.7,109.6c0,0-0.2,0-0.6,0c-4.2,0.2-27.1,0.9-10-11.2
					c20.7-11.8,45.4-33.3,41.9-67.9c21.2-3.4,40.8-8.1,58.8-13.8c2.3-0.7,4.5-1.4,6.7-2.1c0.5-0.2,1-0.3,1.6-0.5c1-0.3,2-0.6,2.9-1
					c0.1,0,0.2-0.1,0.3-0.1c1.4-0.5,2.8-1,4.2-1.5C376.3,457.7,385.9,453.8,395,449.7z"/>
				<path class="st4" d="M280,425.8c3.8,4.8,91.5-34.7,91.5-34.7c1.6-0.8,2.5-2.7,2.7-5c0.2-2.2-0.3-4.9-1.4-7.4l54-27.4
					c8.3,16.6,28,23.3,44.2,15c16.2-8.3,23-28.4,15.5-45.3l11.3-5.7l19,39.9c-24.7,31.8-63.3,68.2-121.7,94.6c0-0.1,0-0.1,0-0.2
					c-9.1,4.2-18.8,8.1-28.9,11.7c-1.4,0.5-2.8,1-4.2,1.5c-0.1,0-0.2,0.1-0.3,0.1c-0.9,0.3-1.9,0.7-2.9,1c-0.5,0.2-1,0.4-1.6,0.5
					c-2.2,0.7-4.4,1.5-6.7,2.1c-19.6,6-40.9,10.9-64.1,14.4l-5-10.5l-17.3-36.5L280,425.8z"/>
				<path class="st3" d="M516.7,355.1l-19-39.9l11.7-5.9l16.2,33.7C522.9,346.9,519.9,351,516.7,355.1z"/>
				<path class="st4" d="M525.7,343l-16.2-33.7l10.9-5.5l13.2,27.4C531.1,335,528.5,338.9,525.7,343z"/>
				<path class="st3" d="M533.5,331.2l-13.2-27.4l11.9-6l9.4,19.6C539.3,321.6,536.6,326.3,533.5,331.2z"/>
				<path class="st5" d="M482,323.2c6.3,14.4,0.5,31.4-13.2,38.4c-13.8,7.1-30.4,1.4-37.5-12.7L482,323.2z"/>
				<path class="st4" d="M541.7,317.3l-9.4-19.6l10.8-5.5l5.6,11.5C546.7,307.7,544.4,312.3,541.7,317.3z"/>
				<polygon class="st3" points="263.9,463.8 252.5,439.8 263.9,433.9 281.2,470.4 269.8,476.3 				"/>
				<polygon class="st6" points="259.3,468.8 234.4,416.4 241,415.7 252.5,439.8 263.9,463.8 				"/>
				<path class="st3" d="M548.6,303.8l-5.6-11.5l13-6.6C556.1,285.6,553.9,292.5,548.6,303.8z"/>
				<path class="st7" d="M426.8,351.2l4.5-2.3c7.1,14.1,23.8,19.7,37.5,12.7c13.7-7,19.5-24.1,13.2-38.4l4.5-2.3
					c7.5,16.9,0.7,37-15.5,45.3C454.8,374.6,435.1,367.9,426.8,351.2z"/>
				<path class="st8" d="M556.1,285.6l-13,6.6l-5.5-11.5C549.4,283.1,556.1,285.6,556.1,285.6z"/>
				<path class="st9" d="M543,292.2l-10.8,5.5l-9.4-19.6c5.5,0.8,10.5,1.7,14.7,2.5L543,292.2z"/>
				<path class="st8" d="M532.2,297.7l-11.9,6l-13.2-27.3c5.7,0.4,10.9,1,15.7,1.7L532.2,297.7z"/>
				<path class="st9" d="M520.3,303.7l-10.9,5.5l-16.1-33.5c4.9,0.1,9.5,0.4,13.8,0.7L520.3,303.7z"/>
				<path class="st8" d="M509.4,309.3l-11.7,5.9L479,275.8c5-0.1,9.8-0.1,14.3,0L509.4,309.3z"/>
				<path class="st10" d="M482,323.2L431.2,349c-0.1-0.2-0.2-0.4-0.3-0.7c-6.9-14.5-1.2-32.1,12.8-39.3c14-7.2,31-1.2,37.9,13.3
					C481.8,322.6,481.9,322.9,482,323.2z"/>
				<path class="st3" d="M280,425.8l92.8-47.1c1.1,2.6,1.6,5.2,1.4,7.4c-0.2,2.4-1.1,4.2-2.7,5C371.4,391.1,283.8,430.6,280,425.8z"
					/>
				<path class="st8" d="M372.7,378.7L280,425.8c0,0-0.1-0.1-0.1-0.1c-2.6-5.5,82.1-54.4,82.1-54.4c3.2-1.6,7.9,1.5,10.5,7
					C372.6,378.4,372.6,378.5,372.7,378.7z"/>
				<polygon class="st8" points="263.9,433.9 252.5,439.8 241,415.7 235.1,403.3 246.5,397.4 				"/>
				<polygon class="st6" points="217.9,418.3 247.9,481.3 247.9,481.3 237.1,493.1 202.3,420 217.9,418.3 				"/>
				<polygon class="st11" points="247.9,481.3 217.9,418.3 234.4,416.4 259.3,468.8 				"/>
				<path class="st6" d="M430.9,348.3c0.1,0.2,0.2,0.4,0.3,0.7l-4.5,2.3c-0.1-0.2-0.2-0.4-0.3-0.7c-8.1-17.1-1.4-37.8,15.1-46.2
					c16.5-8.4,36.4-1.4,44.6,15.7c0.1,0.3,0.3,0.6,0.4,0.9l-4.5,2.3c-0.1-0.3-0.3-0.6-0.4-0.9c-6.9-14.5-23.9-20.5-37.9-13.3
					C429.7,316.2,424,333.8,430.9,348.3z"/>
				<path class="st9" d="M333.7,317.9c55.3-31.6,106.2-41.1,145.3-42.1l18.8,39.4l-11.3,5.7c-0.1-0.3-0.3-0.6-0.4-0.9
					c-8.1-17.1-28.1-24.1-44.6-15.7c-16.5,8.4-23.2,29.1-15.1,46.2c0.1,0.2,0.2,0.4,0.3,0.7l-54,27.4c-0.1-0.2-0.1-0.3-0.2-0.5
					c-2.6-5.5-7.3-8.6-10.5-7c0,0-84.7,48.9-82.1,54.4c0,0,0,0.1,0.1,0.1l-16.1,8.2l-17.4-36.6l-3.9-8.2c1.6-1.6,3.1-3.1,4.7-4.7
					c11.9-11.8,23.8-22.4,35.6-31.8C300,338.8,317.1,327.4,333.7,317.9z"/>
				<path class="st8" d="M247.3,384.5c-24.4-23.9-55.8-16.7-77.4-6.8c-10.9,3.7-11.3-0.3-9.1-5.2l0,0c0,0,66.6-69.2,122-19.9l0,0
					C271.1,362.1,259.2,372.7,247.3,384.5z"/>
				<path class="st12" d="M282.8,352.7c-55.4-49.3-122,19.9-122,19.9l0,0c1.8-3.9,5.4-8.4,6.6-9.9c0.3-0.3,0.4-0.5,0.4-0.5
					c70.1-78.4,151.3-50.3,165.9-44.3C317.1,327.4,300,338.8,282.8,352.7L282.8,352.7z"/>
			</g>
			<g>
			</g>
		</g>
		<path class="st13" d="M234.7,488c0,0-20.2,52-49.2,54.5l5.6-15.2c0,0-42.4,25.9-65.3,13.9l13.3-12.4c0,0-37.8,5.3-58,0.3
			c8.4-19.8,35.5-47.7,35.5-47.7l-17.6,3.4c4.7-26.2,50.3-45.4,50.3-45.4l-15-4.7c19.6-22.4,70.5-9.7,70.5-9.7L234.7,488z"/>
		<path class="st14" d="M231.6,481.5c0,0-15.3,40.5-37.7,42.3l4.2-11.9c0,0-32.6,20-50.4,10.5l10.2-9.6c0,0-29.1,4-44.8-0.1
			c6.4-15.4,27.2-37,27.2-37l-13.6,2.6c3.5-20.4,38.6-35.1,38.6-35.1l-11.6-3.7c15-17.4,54.4-7.2,54.4-7.2L231.6,481.5z"/>
		<path class="st8" d="M227.5,473c0,0-9.5,26.7-24,27.6l2.6-7.8c0,0-20.9,12.9-32.5,6.4l6.5-6.3c0,0-18.8,2.3-29-0.6
			c4-10.1,17.2-24.3,17.2-24.3l-8.8,1.6c2.1-13.5,24.7-22.9,24.7-22.9l-7.6-2.6c9.5-11.4,35.2-4.2,35.2-4.2L227.5,473z"/>
		<path class="st13" d="M85.6,493.4c-2.1-4.4-8.7-1-6.6,3.4C81.1,501.2,87.7,497.8,85.6,493.4z"/>
		<path class="st13" d="M58.3,518.8c-2.1-4.4-8.7-1-6.6,3.4C53.8,526.6,60.4,523.2,58.3,518.8z"/>
		<path class="st13" d="M75.4,553.8c-2.1-4.4-8.7-1-6.6,3.4C70.9,561.6,77.5,558.2,75.4,553.8z"/>
		<path class="st13" d="M111.8,540.8c-2.1-4.4-8.7-1-6.6,3.4C107.3,548.6,113.9,545.2,111.8,540.8z"/>
		<path class="st13" d="M43.5,549.2c-2.1-4.4-8.7-1-6.6,3.4C39,557,45.6,553.6,43.5,549.2z"/>
		<path class="st14" d="M108.3,446.6c-2.1-4.4-8.7-1-6.6,3.4C103.7,454.4,110.4,451.1,108.3,446.6z"/>
		<path class="st14" d="M103.9,521.1c-2.1-4.4-8.7-1-6.6,3.4C99.3,529,106,525.6,103.9,521.1z"/>
		<path class="st14" d="M70.4,535.4c-2.1-4.4-8.7-1-6.6,3.4C65.8,543.3,72.5,539.9,70.4,535.4z"/>
		<path class="st14" d="M99.6,566.1c-2.1-4.4-8.7-1-6.6,3.4C95.1,573.9,101.7,570.5,99.6,566.1z"/>
		<path class="st14" d="M65.8,490.2c-2.1-4.4-8.7-1-6.6,3.4C61.3,498.1,67.9,494.7,65.8,490.2z"/>
		<path class="st14" d="M140.4,554.7c-2.1-4.4-8.7-1-6.6,3.4C135.9,562.5,142.5,559.1,140.4,554.7z"/>
	</g>
	<g id="XMLID_2_">
		<g>
			<path class="st15" d="M468.9,199.1c4.1,6.2,2,14.9-4.7,19.4c-5.1,3.4-11.4,3.5-15.9,0.6l-2.4,5.9c-0.9,2.1-3.8,3.2-6.5,2.3
				c-1.5-0.5-2.7-1.5-3.3-2.6c-0.4-0.9-0.5-1.8-0.1-2.8l3.9-9.7c0.2-0.4,0.4-0.8,0.7-1.1c-0.3-0.3-0.6-0.5-0.9-0.8l20.2-21.3
				C465.5,194.2,468.3,198.3,468.9,199.1z"/>
			<path class="st9" d="M460,189.1l-20.2,21.3c-2-1.9-4.8-4.2-8.2-6.4l5.1-5.4l15.2-16.1C455.1,184.8,457.8,187,460,189.1z"/>
			<path class="st16" d="M436.8,198.6l-5.1,5.4c-2.4-1.5-5.2-3-8.3-4.3c-14.6-6.1-31.6-5.7-50.6,0.9l-4.9-9.7
				C367.9,190.9,416.6,174.3,436.8,198.6z"/>
			<path class="st9" d="M439.8,210.4l-14-0.1l5.9-6.2C435.1,206.2,437.8,208.5,439.8,210.4z"/>
			<path class="st17" d="M464.6,416.5c0,0,35.6-26.4,40.4,2c0,0,1.6,10.1-0.2,14L425.3,448c0,0-9.1-20.9,1.7-26.4l0.1,0L464.6,416.5
				z"/>
			<path class="st18" d="M341.4,119.3l-8.2-17.3c0,0,1.9-1.6,4.5-2c3.3-0.5,7.9,0.8,11.7,9.1c6.9,15-4.7,17.3-4.7,17.3L341.4,119.3z
				"/>
			<path class="st19" d="M313.8,64.5c7.4,3.4-8.6,9.9-8.6,9.9S306.3,61.1,313.8,64.5z"/>
			<path class="st19" d="M301.9,61.7c6.2-3.6,2,12.6,2,12.6S295.7,65.2,301.9,61.7z"/>
			<path class="st20" d="M312.2,112.3c3.9-0.4,4.6,5.9,0.7,6.4C308.9,119.1,308.3,112.8,312.2,112.3z"/>
			<path class="st21" d="M348,182.2c-1.3,0.3-2.5,0.8-3.8,1.4c0.2-0.2,0.5-0.3,0.8-0.4c1-0.5,2-1,3-1.5L348,182.2z"/>
			<path class="st22" d="M389.5,276c-11.1,1.3-21.2-0.4-30.4-3.9l-8.1-17.2l-0.1-0.2l1.5-35.1l-9.4-10.8l2.7,0l3,0l-0.6-26.6l0-0.5
				c41.6-20.2,71.8-15.1,90-7.1c5.4,2.4,10,5.1,14,7.9l-15.2,16.1c-20.1-24.3-68.9-7.7-68.9-7.7l4.9,9.7l28.2,59.7L389.5,276z"/>
			<path class="st21" d="M336.5,197.6l-2.3-9l9.1-4.6c0.3-0.1,0.5-0.3,0.8-0.4l0,0c1.2-0.6,2.5-1.1,3.8-1.4l0.6,26.6l-3,0l-2.7,0
				l-3.4,0.9l-2-7.9l0,0l0-0.1L336.5,197.6L336.5,197.6z"/>
			<path class="st23" d="M308.3,118.9c-1.9-4-0.3-8.8,3.6-10.8c3.9-2,8.5-0.3,10.4,3.7c1.9,4,0.3,8.8-3.6,10.7
				C314.9,124.5,310.2,122.8,308.3,118.9z M312.9,118.7c3.9-0.5,3.3-6.8-0.7-6.4C308.3,112.8,308.9,119.1,312.9,118.7z"/>
			<path class="st24" d="M313.4,154.3c0.3-1.6-0.4-4.3-1.8-7.5l0.7-0.4c2-1,4.4-0.3,5.3,1.6c0.9,1.9,0,4.3-2,5.3l-1.4,0.7
				C313.9,154.1,313.6,154.2,313.4,154.3z"/>
			<polygon class="st4" points="325,199.6 324.8,199.4 333.8,188.9 334.6,205.4 330.9,203.2 			"/>
			<path class="st9" d="M330.9,203.2l3.7,2.3l-0.8-16.5l0.5-0.2l2.3,9l0,0c0.1,1.4,0.4,2.7,1,4l0,0.1l0,0l2,7.9l1.8,7.1l-10.2-11.4
				L330.9,203.2z"/>
			<polygon class="st21" points="352.3,219.6 350.8,254.6 341.3,216.8 339.5,209.7 342.9,208.8 			"/>
			<polygon class="st8" points="350.8,254.6 327.3,223.3 324.6,208.7 324.7,208.7 331.1,205.4 341.3,216.8 			"/>
			<path class="st22" d="M389.5,276l-26.8,3.8l-3.6-7.7C368.3,275.6,378.4,277.2,389.5,276z"/>
			<path class="st21" d="M366.9,281.4c-2.3,0.3-4.6,0.6-6.7,1l2.6-2.6l26.8-3.8l11.4-15.6l7.6,16.2c1.3,2.8,1.5,5.8,0.8,8.9
				c-0.4,0.1-0.7,0.1-1.1,0.2c-1.4-0.5-2.8-1-4.2-1.4C391,280.2,377.9,280,366.9,281.4z"/>
			<polygon class="st3" points="323.9,200.1 325,199.6 330.9,203.2 331.1,205.4 324.7,208.7 323,207.1 			"/>
			<path class="st25" d="M310.6,156.5c-17.9,2.4-19.4-29.2-19.4-29.2l2.8-1.4c3.7-1.9,13.6,11.4,17.7,20.8c1.4,3.2,2.2,5.9,1.8,7.5
				c-0.1,0.6-0.4,1-0.9,1.2L310.6,156.5z"/>
			<path class="st26" d="M294.3,155.6c-4.7-9.2-8.8-25.4-5.1-27.2l2-1c0,0,1.5,31.6,19.4,29.2l-10.2,5.2c-0.5,0.2-1,0.2-1.5,0
				C297.5,161,295.8,158.7,294.3,155.6z"/>
			<polygon class="st4" points="322.4,211.6 310.4,200.8 323.9,199.9 323.9,200.1 323,207.1 			"/>
			<polygon class="st21" points="323.2,234.3 320.8,220 323.3,218 327.3,223.3 350.8,254.6 350.9,254.9 			"/>
			<polygon class="st9" points="323.3,218 310.4,200.8 322.4,211.6 323,207.1 324.7,208.7 324.6,208.7 327.3,223.3 			"/>
			<path class="st24" d="M296.8,162.8c-2,1-4.4,0.3-5.3-1.6c-0.4-1-0.5-2-0.1-3c0.4-1,1.1-1.8,2.1-2.3l0.8-0.4
				c1.6,3.1,3.2,5.4,4.6,6.1c-0.2,0.2-0.5,0.3-0.7,0.4L296.8,162.8z"/>
			<path class="st21" d="M310.4,200.8l12.9,17.2l-2.5,2.1l-3.4,4.7l-9.4-8l0,0c-1.3-2.1-3.2-3.6-5.4-4.6l0,0l-5.4-4.6
				c0.4-0.2,0.8-0.5,1.2-0.7L310.4,200.8z"/>
			<path class="st27" d="M307.5,194.8c-0.4-0.8-0.6-1.5-0.9-2.4c1.2,0.1,2.4,0.1,3.6,0.1c3.5-0.2,7.2-1.2,10.7-3
				c2.4-1.2,4.5-2.7,6.3-4.3c1.4-1.3,2.7-2.7,3.7-4.2c0.3,0.5,0.6,0.9,0.8,1.4l1.3,2.7c0.5,1.1,0.9,2.3,1.1,3.5l-0.5,0.2l-8.9,10.5
				l0.2,0.1l-1.1,0.6l0-0.2l-13.5,0.9l0.4-0.2c-0.8-0.9-1.5-1.9-2-3.1L307.5,194.8z"/>
			<path class="st2" d="M425.3,448l79.4-15.5c-0.3,0.6-0.6,1-1,1.3c-3.3,1.9-59.3,13.5-59.3,13.5l-1.1,1.5l-17.7,2.5L425.3,448z"/>
			<path class="st21" d="M336.8,289.1c0.8-0.4,10-4.3,23.3-6.7c2.2-0.4,4.4-0.7,6.7-1c11.1-1.3,24.1-1.2,37.1,2.8
				c1.4,0.4,2.8,0.9,4.2,1.4c0.3,0.1,0.6,0.2,0.9,0.3c4.1,1.6,8.1,3.5,12,6c2.6,1.6,5.1,3.4,7.5,5.3c21.5,17.4,33.5,47.7,35.8,90.2
				c0,2.2-0.1,4.4-0.2,6.7c-0.1,1.7,0.1,3.4,0.6,5c0.1,5.2,0,10.5-0.2,16c0,0.5-0.1,1-0.1,1.5l-37.4,5.1c-0.4-1.5-0.6-3.1-0.5-4.8
				c1.7-48.5-7.8-80.7-27.4-93c-15.9-10-36.4-5.3-45-2.5l-1.6,0.8c-5.7,2.9-11.9,3.3-16.6,1.5c-0.2-0.1-0.4-0.1-0.6-0.2
				c0,0-0.1,0-0.1-0.1c-4.3-1.6-7.9-4.9-9.7-9.5c-0.7-1.9-1.2-3.8-1.2-5.8C324.2,300.3,329,292.6,336.8,289.1z"/>
			<path class="st21" d="M302.5,212.1c2.2,1,4.1,2.5,5.4,4.6L302.5,212.1z"/>
			<path class="st15" d="M308.3,118.9c1.9,4,6.5,5.6,10.4,3.7c3.9-2,5.4-6.8,3.6-10.7c-1.9-4-6.5-5.6-10.4-3.7
				C308.1,110.1,306.5,114.9,308.3,118.9z M291.4,158.3c-0.4,1-0.4,2,0.1,3c0.9,1.9,3.3,2.6,5.3,1.6l1.4-0.7
				c0.3-0.1,0.5-0.3,0.7-0.4c0.5,0.3,1,0.3,1.5,0l10.2-5.2l2-1c0.4-0.2,0.7-0.7,0.9-1.2c0.2-0.1,0.5-0.2,0.7-0.3l1.4-0.7
				c2-1,2.9-3.4,2-5.3c-0.9-1.9-3.3-2.6-5.3-1.6l-0.7,0.4c-4.2-9.5-14.1-22.7-17.7-20.8l-2.8,1.4l-2,1c-3.7,1.9,0.4,18.1,5.1,27.2
				l-0.8,0.4C292.5,156.5,291.8,157.3,291.4,158.3z M260.2,144.1c1.9,4,6.5,5.6,10.4,3.7c3.9-2,5.4-6.8,3.6-10.7
				c-1.9-4-6.5-5.6-10.4-3.7C259.9,135.3,258.3,140.1,260.2,144.1z M303.6,191.9c-24.3-0.4-37.3-17.2-43.9-31.2
				c-4.8-10.1-6.2-18.8-6.2-18.8c2.5-5.5,1.2-14,1.2-14c41.4-11.3,51.3-43.2,51.5-44c0,0,0,0,0,0s3.8,16,22.1,18.2l11,23.4l1.4-6
				l0.5-0.3l3.4,7.1l2.4,5.1c7.3,15.4,1.2,34.5-13.5,44.9c-0.7,1.6-1.5,3.1-2.6,4.6c-1.1,1.5-2.3,2.9-3.7,4.2
				c-1.8,1.7-4,3.1-6.3,4.3c-3.5,1.8-7.2,2.8-10.7,3c-1.2,0.1-2.4,0.1-3.6-0.1C305.6,192.3,304.6,192.2,303.6,191.9z"/>
			<path class="st16" d="M292.9,241.1c15-12.5-1.2-29.3-1.2-29.3c0.8-0.9,1.7-1.7,2.7-2.5c0.9-0.7,1.8-1.3,2.7-1.8
				c0.8,1.7,22.9,49.8,61.9,64.5l3.6,7.7l-2.6,2.6c-13.2,2.4-22.5,6.4-23.3,6.7c-7.9,3.5-12.7,11.2-12.4,18.9L292.9,241.1z"/>
			<path class="st22" d="M359.1,272.1c-39.1-14.8-61.1-62.8-61.9-64.5l0,0l5.4,4.6l0,0l5.4,4.6l0,0l9.4,8l3.4-4.7l2.5,14.3
				l27.7,20.5L359.1,272.1z"/>
			<path class="st20" d="M264.7,144c-3.9,0.5-4.6-5.9-0.7-6.4C268,137.1,268.7,143.5,264.7,144z"/>
			<path class="st23" d="M264.1,137.6c-4,0.5-3.3,6.8,0.7,6.4C268.7,143.5,268,137.1,264.1,137.6z M260.2,144.1
				c-1.9-4-0.3-8.8,3.6-10.8c3.9-2,8.5-0.3,10.4,3.7c1.9,4,0.3,8.8-3.6,10.7C266.7,149.8,262.1,148.1,260.2,144.1z"/>
			<path class="st19" d="M243.6,142.4c-8.1-17.2,0.3-38.7,18.7-48.1l20.9-10.6c18.4-9.4,40-3,48.1,14.2l1.9,4l8.2,17.3l-0.5,0.3
				l-1.4,6l-11-23.4c-18.3-2.3-22.1-18.2-22.1-18.2s0,0,0,0c-0.4,0.8-17.3,32.8-60,38.7c0,0,6.1,7.8,3.2,18.2l9.6,20.4l2,4.2
				l-6.5-0.9l-0.5,0.2l-8.6-18.2L243.6,142.4z"/>
			<path class="st22" d="M223.1,220.5c18.7,7.8,41.2,5.1,66.9-8c0.6-0.3,1.1-0.5,1.7-0.7l0,0c0,0,16.2,16.8,1.2,29.3
				c-38.8,17.1-67.1,12.1-84.4,4.5c-5.6-2.5-10.4-5.3-14.4-8.2l13.9-26.3C211.5,214.2,216.5,217.8,223.1,220.5z"/>
			<path class="st28" d="M303.6,191.9c-17.5,6.7-36.6,0.1-44.2-15.9l-2.4-5.1l-3-6.3l0.5-0.2l6.5,0.9l-2-4.2l0.7-0.4
				C266.3,174.7,279.3,191.5,303.6,191.9z"/>
			<path class="st28" d="M253.5,141.9c0,0,1.4,8.7,6.2,18.8l-0.7,0.4l-9.6-20.4c3-10.4-3.2-18.2-3.2-18.2
				c42.7-5.9,59.6-37.9,60-38.7c-0.2,0.8-10.1,32.7-51.5,44C254.7,127.9,256,136.4,253.5,141.9z"/>
			<path class="st18" d="M254.1,164.6l3,6.3c0,0-8.8,8.1-16-6.8c-4.1-8.3-2.1-12.9,0.3-15.3c1.9-1.8,4.2-2.4,4.2-2.4L254.1,164.6z"
				/>
			<path class="st19" d="M210.4,111.9c1.6-9.1,9.5-6.8,10.1-6.6c-5.9-3.1-12.3-11.4-1.6-21.7c8.5-8.2,15.4-2.5,17.9,0.2
				c0.4,0.6,0.9,1.1,1,1.2c-0.1-0.1-0.4-0.6-1-1.2c-1.2-1.7-2.4-5.1,2.8-7.8c7.4-3.8,8.5,1.4,8.5,1.4s8.4,15.3,33.7,2.4
				c7.7-3.9,15.1-5.6,22-5.5c0.4,0,0.9,0,1.3,0c15.4,0.7,27.7,10.5,32.5,25.6c-2.7,0.4-4.5,2-4.5,2l-1.9-4
				c-8.1-17.2-29.7-23.5-48.1-14.2l-20.9,10.6c-18.4,9.3-26.8,30.9-18.7,48.1l1.9,4c0,0-2.3,0.5-4.2,2.4l-0.3-0.3
				c-9.2-10.9-6.5-22.4-6.5-22.4c-13.2,4.8-17.4-5.9-17.4-5.9S208.8,121.3,210.4,111.9z"/>
			<path class="st2" d="M173,59l-1.4-23.5c-0.1-1.3,1.2-2.6,2.8-2.9c0,0,0,0,0,0c1.6-0.2,3,0.7,3.1,2l4,65.3c-2-1.5-4.1-3-6.3-4.3
				L173,59z"/>
			<path class="st18" d="M200.5,202.9l-2,3.7l-0.8-1.7c-0.1-0.2-0.2-0.5-0.3-0.7c0.6-1,0.8-2.2,0.7-3.3
				C199,201.5,199.8,202.2,200.5,202.9z"/>
			<path class="st15" d="M183.1,198l1.4,2.5l2.4,4.5c0.3,0.5,0.7,1,1.1,1.4c1.7,1.5,4.3,1.8,6.6,0.7c0.1-0.1,0.2-0.1,0.3-0.2
				c1.1-0.6,1.9-1.5,2.5-2.5c0.1,0.2,0.2,0.5,0.3,0.7l0.8,1.7l0.2,0.5c3.2,6.8-0.1,15.2-7.3,18.9c-0.7,0.4-1.5,0.7-2.2,0.9
				c-0.6,0.2-1.2,0.4-1.8,0.5c-1.4,0.3-2.8,0.3-4.1,0.2c-0.2,0-0.3,0-0.5,0c-0.8-0.1-1.6-0.3-2.3-0.5c-3.4-1-6.3-3.3-7.9-6.7l-1-2.2
				c-3.2-6.8,0.1-15.2,7.3-18.9c0.9-0.4,1.7-0.8,2.6-1.1C182,198.2,182.5,198,183.1,198z"/>
			<path class="st18" d="M194.9,206.8c-0.1,0.1-0.2,0.1-0.3,0.2c-2.3,1.2-4.9,0.8-6.6-0.7c-0.4-0.4-0.8-0.8-1.1-1.4l-2.4-4.5
				l-1.4-2.5l-0.3-0.5c-1.5-2.7-0.3-6.3,2.6-8c0.5-0.3,1-0.5,1.5-0.6c2.6-0.7,5.3,0.3,6.5,2.5l4.1,7.4c0.4,0.7,0.6,1.4,0.6,2.2
				c0.1,1.1-0.2,2.3-0.7,3.3C196.8,205.3,196,206.2,194.9,206.8z"/>
			<path class="st29" d="M81.5,60.8c35.9-25.1,91.3-28.1,92.8-28.2c-1.6,0.2-2.9,1.5-2.8,2.9L173,59C130.1,40,99.8,49.3,81.5,60.8z"
				/>
			<path class="st30" d="M81.5,60.8C99.8,49.3,130.1,40,173,59l2.2,36.6C128.4,65.9,60.8,81.8,60.8,81.8
				C66.1,73.5,73.3,66.6,81.5,60.8C81.5,60.8,81.5,60.8,81.5,60.8z"/>
			<path class="st2" d="M182.8,197.5l0.3,0.5c-0.5,0.1-1,0.2-1.6,0.4l-6.3-102.7c2.1,1.3,4.2,2.8,6.3,4.3l5.4,88.9
				c-0.5,0.1-1,0.4-1.5,0.6C182.5,191.2,181.3,194.8,182.8,197.5z"/>
			<path class="st9" d="M191.4,226c7.2-3.7,10.5-12.1,7.3-18.9l-0.2-0.5l2-3.7l2.3-4.3l5.3,12.2l-0.1,0.3l-13.9,26.3l-0.7,1.4
				l-3.5-1.5l-0.2-3.2l-0.4-7.1C190,226.7,190.7,226.4,191.4,226z"/>
			<path class="st2" d="M187.4,227.4c0.6-0.1,1.2-0.3,1.8-0.5l0.4,7.1l0.2,3.2l2.4,40c0.1,1.4-1.2,2.6-2.8,2.9
				c-1.3,0.2-2.5-0.4-2.9-1.3c-0.1-0.2-0.2-0.4-0.2-0.7l-2.7-43.5l-0.1,0l0-0.1l-0.4-6.3c-0.2-0.2-0.3-0.4-0.5-0.5
				c0.1,0,0.3,0,0.5,0C184.6,227.7,186,227.7,187.4,227.4z"/>
		</g>
		<g>
		</g>
	</g>
	<path class="st9" d="M332.7,152.6c-14.5,23-38.1,23.2-45.5,22.6c0,0,0-0.1-0.1-0.2c-4.5-9.6,10-5.1,22.6-11.5
		c12.7-6.4,18.2-21.1,22.7-11.5C332.6,152.2,332.6,152.4,332.7,152.6z"/>
	<path class="st31" d="M317.9,181c-12.5,6.1-26.2,3.6-30.7-5.8c7.4,0.6,31,0.4,45.5-22.6C336.7,162.1,330.2,174.6,317.9,181z"/>
	<path class="st32" d="M334.2,150.1c-0.5,0.9-1,1.7-1.5,2.5"/>
	<path class="st32" d="M287.2,175.2c-1.5-0.1-2.3-0.3-2.3-0.3"/>
	<path class="st33" d="M357.4,257.5c-3.2,0-3.2,5,0,5C360.6,262.5,360.6,257.5,357.4,257.5z"/>
	<path class="st33" d="M363.4,269.5c-3.2,0-3.2,5,0,5C366.6,274.5,366.6,269.5,363.4,269.5z"/>
	<path class="st34" d="M324.4,323.4c0,0,5.9,16.2,32.6,4.6c26.7-11.7,52.4,4.2,63.9,28.3c0,0-9.8-53.2-66.6-35
		c0,0-14.1,8.2-24.3-1.2L324.4,323.4z"/>
</g>
</svg>
